<?xml version="1.0" encoding="UTF-8" standalone="no"?>
<!DOCTYPE svg PUBLIC "-//W3C//DTD SVG 1.1//EN"
 "http://www.w3.org/Graphics/SVG/1.1/DTD/svg11.dtd">
<!-- Generated by graphviz version 14.1.3 (20260303.0454)
 -->
<!-- Pages: 1 -->
<svg width="285pt" height="108pt"
 viewBox="0.00 0.00 285.00 108.00" xmlns="http://www.w3.org/2000/svg" xmlns:xlink="http://www.w3.org/1999/xlink">
<g id="graph0" class="graph" transform="scale(1 1) rotate(0) translate(4 104)">
<!-- CORE -->
<g id="node1" class="node">
<title>CORE</title>
<polygon fill="#1f2937" stroke="black" points="108.25,-67.5 0,-67.5 0,-31.5 108.25,-31.5 108.25,-67.5"/>
<text xml:space="preserve" text-anchor="middle" x="54.12" y="-44.45" font-family="Times New Roman,serif" font-size="14.00" fill="white">CORE SWITCH</text>
</g>
<!-- link_dados -->
<g id="node2" class="node">
<title>link_dados</title>
<path fill="none" stroke="black" d="M262.25,-100C262.25,-100 159.25,-100 159.25,-100 153.25,-100 147.25,-94 147.25,-88 147.25,-88 147.25,-71 147.25,-71 147.25,-65 153.25,-59 159.25,-59 159.25,-59 262.25,-59 262.25,-59 268.25,-59 274.25,-65 274.25,-71 274.25,-71 274.25,-88 274.25,-88 274.25,-94 268.25,-100 262.25,-100"/>
<text xml:space="preserve" text-anchor="middle" x="210.75" y="-82.7" font-family="Times New Roman,serif" font-size="14.00">Switch1&#45;RackDados</text>
<text xml:space="preserve" text-anchor="middle" x="210.75" y="-66.2" font-family="Times New Roman,serif" font-size="14.00">SFP1</text>
</g>
<!-- CORE&#45;&gt;link_dados -->
<g id="link_dados" class="edge">
<title>CORE&#45;&gt;link_dados</title>
<path fill="none" stroke="black" stroke-width="4" d="M108.34,-59.82C115.7,-61.25 123.39,-62.75 131.1,-64.24"/>
<polygon fill="black" stroke="black" stroke-width="4" points="130.42,-67.67 140.9,-66.14 131.75,-60.8 130.42,-67.67"/>
</g>
<!-- link_oficina -->
<g id="node3" class="node">
<title>link_oficina</title>
<path fill="none" stroke="black" d="M265.25,-41C265.25,-41 156.25,-41 156.25,-41 150.25,-41 144.25,-35 144.25,-29 144.25,-29 144.25,-12 144.25,-12 144.25,-6 150.25,0 156.25,0 156.25,0 265.25,0 265.25,0 271.25,0 277.25,-6 277.25,-12 277.25,-12 277.25,-29 277.25,-29 277.25,-35 271.25,-41 265.25,-41"/>
<text xml:space="preserve" text-anchor="middle" x="210.75" y="-23.7" font-family="Times New Roman,serif" font-size="14.00">Switch1&#45;RackOficina</text>
<text xml:space="preserve" text-anchor="middle" x="210.75" y="-7.2" font-family="Times New Roman,serif" font-size="14.00">SFP3</text>
</g>
<!-- CORE&#45;&gt;link_oficina -->
<g id="link_oficina" class="edge">
<title>CORE&#45;&gt;link_oficina</title>
<path fill="none" stroke="black" stroke-width="4" d="M108.34,-39.52C114.78,-38.31 121.46,-37.06 128.19,-35.8"/>
<polygon fill="black" stroke="black" stroke-width="4" points="128.73,-39.26 137.92,-33.97 127.44,-32.38 128.73,-39.26"/>
</g>
</g>
</svg>
